<svg width="99" height="53" viewBox="0 0 99 53" fill="none" xmlns="http://www.w3.org/2000/svg">
<path d="M13.44 16.425C13.02 18.945 12.81 22.1533 12.81 26.05C12.81 28.92 12.9267 30.81 13.16 31.72L13.3 32.175C13.3 32.4783 13.0433 32.63 12.53 32.63C10.7333 32.63 9.70667 32.1283 9.45 31.125C9.42667 31.0083 9.36833 30.95 9.275 30.95C9.205 30.95 9.135 30.9967 9.065 31.09C8.34167 32.0467 7.22167 32.525 5.705 32.525C4.865 32.525 3.99 32.315 3.08 31.895C2.52 31.6383 2.065 31.195 1.715 30.565C1.365 29.9117 1.19 29.1183 1.19 28.185L1.715 20.52C1.715 18.91 1.55167 17.7667 1.225 17.09C1.10833 16.8333 1.05 16.67 1.05 16.6C1.05 16.46 1.10833 16.3667 1.225 16.32C1.59833 16.2033 2.07667 16.145 2.66 16.145C4.92333 16.145 6.055 17.0783 6.055 18.945C6.055 19.5283 5.81 20.8583 5.32 22.935C4.85333 25.0117 4.62 26.4933 4.62 27.38C4.62 28.2433 4.80667 28.9083 5.18 29.375C5.57667 29.8417 6.11333 30.075 6.79 30.075C7.49 30.075 8.03833 29.83 8.435 29.34C8.83167 28.85 9.065 28.36 9.135 27.87L9.24 27.135C9.33333 26.3183 9.38 24.8833 9.38 22.83C9.38 20.7767 9.31 19.4817 9.17 18.945C9.05333 18.385 8.995 18.035 8.995 17.895C8.995 17.3117 9.46167 16.8567 10.395 16.53C11.3283 16.18 12.1683 16.005 12.915 16.005C13.265 16.005 13.44 16.145 13.44 16.425ZM15.132 32.245C15.552 29.725 15.762 26.7033 15.762 23.18C15.762 19.6567 15.657 17.37 15.447 16.32C15.447 16.0167 15.797 15.865 16.497 15.865C17.5704 15.865 18.282 16.2733 18.632 17.09C18.6554 17.16 18.7137 17.195 18.807 17.195C18.9004 17.195 18.9704 17.1717 19.017 17.125C19.7404 16.3783 20.8604 16.005 22.377 16.005C23.8937 16.005 25.0954 16.39 25.982 17.16C26.8687 17.93 27.312 19.05 27.312 20.52C27.312 21.4067 27.2304 22.6667 27.067 24.3C26.927 25.9333 26.857 27.1467 26.857 27.94C26.857 29.83 27.172 31.195 27.802 32.035C27.8954 32.1517 27.942 32.2683 27.942 32.385C27.942 32.6883 27.6154 32.84 26.962 32.84C24.0687 32.84 22.622 31.5567 22.622 28.99C22.622 28.01 22.8437 26.645 23.287 24.895C23.7304 23.145 23.952 21.815 23.952 20.905C23.952 19.0383 23.182 18.105 21.642 18.105C20.8954 18.105 20.3237 18.3267 19.927 18.77C19.5537 19.2133 19.3437 19.7267 19.297 20.31C19.2504 20.87 19.227 21.9433 19.227 23.53C19.227 25.9567 19.3087 28.0683 19.472 29.865L19.542 30.635C19.542 31.2883 19.1104 31.79 18.247 32.14C17.407 32.5133 16.672 32.7 16.042 32.7C15.4354 32.7 15.132 32.5483 15.132 32.245ZM32.7165 13.275L31.8765 13.24C31.2465 13.24 30.8382 13.3917 30.6515 13.695C30.6049 13.765 30.5465 13.8 30.4765 13.8C30.1732 13.8 30.0215 13.2867 30.0215 12.26C30.0215 11.21 30.1732 10.545 30.4765 10.265C30.8032 9.985 31.3515 9.845 32.1215 9.845C32.9149 9.845 33.4515 9.985 33.7315 10.265C34.0115 10.5217 34.1515 10.965 34.1515 11.595C34.1515 12.225 34.0465 12.6683 33.8365 12.925C33.6265 13.1583 33.2532 13.275 32.7165 13.275ZM29.9165 30.95L30.3015 22.795C30.3015 20.8583 30.0799 19.54 29.6365 18.84C29.4965 18.6067 29.3332 18.4317 29.1465 18.315C29.0065 18.2683 28.9365 18.175 28.9365 18.035C28.9365 17.615 29.5315 17.2067 30.7215 16.81C31.9115 16.4133 32.7749 16.215 33.3115 16.215C33.8715 16.215 34.1632 16.355 34.1865 16.635C34.1865 17.1017 34.1165 18.4317 33.9765 20.625C33.8599 22.795 33.8015 25.0817 33.8015 27.485C33.8015 29.8883 33.9415 31.3817 34.2215 31.965C34.2915 32.0817 34.3265 32.1983 34.3265 32.315C34.3265 32.6183 33.8832 32.77 32.9965 32.77C32.1099 32.77 31.1999 32.5367 30.2665 32.07C30.0332 31.9533 29.9165 31.58 29.9165 30.95ZM44.7552 39.07L44.9652 35.15C44.9652 35.01 44.9068 34.94 44.7902 34.94C44.4402 34.94 44.0902 34.835 43.7402 34.625C43.4135 34.415 43.2502 34.1583 43.2502 33.855L43.3902 33.575C43.8568 33.295 44.2302 32.9333 44.5102 32.49C44.7902 32.07 44.9535 31.72 45.0002 31.44L45.0352 31.02C45.2218 26.2367 45.3152 23.74 45.3152 23.53C45.3152 20.7767 45.1635 19.1433 44.8602 18.63C44.6968 18.3267 44.2885 18.175 43.6352 18.175C43.0052 18.175 42.4218 18.42 41.8852 18.91C41.3485 19.3767 40.9635 19.995 40.7302 20.765C40.2635 22.1883 40.0302 23.5067 40.0302 24.72C40.0302 27.45 40.7885 28.815 42.3052 28.815C42.5385 28.815 42.7602 28.7683 42.9702 28.675C43.2035 28.5583 43.3435 28.5 43.3902 28.5C43.6235 28.5 43.7402 28.8617 43.7402 29.585C43.7402 30.3083 43.4835 30.9733 42.9702 31.58C42.4568 32.1867 41.6985 32.49 40.6952 32.49C39.6918 32.49 38.8868 32.2567 38.2802 31.79C37.6968 31.3233 37.2768 30.7167 37.0202 29.97C36.5302 28.6167 36.2852 27.17 36.2852 25.63C36.2852 23.1333 36.9268 20.94 38.2102 19.05C39.5168 17.1367 41.3018 16.18 43.5652 16.18C44.4985 16.18 45.1985 16.3667 45.6652 16.74C45.8285 16.8567 45.9452 16.915 46.0152 16.915C46.0852 16.915 46.1435 16.8917 46.1902 16.845C46.9368 16.1917 47.7768 15.865 48.7102 15.865C49.0835 15.865 49.2702 15.9817 49.2702 16.215C49.2702 16.285 49.2118 16.6933 49.0952 17.44C48.7218 19.8667 48.5352 23.285 48.5352 27.695C48.5352 27.8117 48.6285 27.8817 48.8152 27.905C49.0018 27.9283 49.2818 28.0333 49.6552 28.22C50.0285 28.4067 50.2152 28.6167 50.2152 28.85C50.2152 28.9433 50.1568 29.025 50.0402 29.095C49.0135 29.7483 48.5002 30.9383 48.5002 32.665C48.5002 37.1217 48.7452 40.1783 49.2352 41.835C49.3052 41.975 49.3402 42.1033 49.3402 42.22C49.3402 42.4067 49.1535 42.5 48.7802 42.5C48.4302 42.5 47.9518 42.395 47.3452 42.185C46.7385 41.9983 46.1552 41.625 45.5952 41.065C45.0352 40.5283 44.7552 39.8633 44.7552 39.07ZM63.855 16.425C63.435 18.945 63.225 22.1533 63.225 26.05C63.225 28.92 63.3417 30.81 63.575 31.72L63.715 32.175C63.715 32.4783 63.4584 32.63 62.945 32.63C61.1484 32.63 60.1217 32.1283 59.865 31.125C59.8417 31.0083 59.7834 30.95 59.69 30.95C59.62 30.95 59.55 30.9967 59.48 31.09C58.7567 32.0467 57.6367 32.525 56.12 32.525C55.28 32.525 54.405 32.315 53.495 31.895C52.935 31.6383 52.48 31.195 52.13 30.565C51.78 29.9117 51.605 29.1183 51.605 28.185L52.13 20.52C52.13 18.91 51.9667 17.7667 51.64 17.09C51.5234 16.8333 51.465 16.67 51.465 16.6C51.465 16.46 51.5234 16.3667 51.64 16.32C52.0134 16.2033 52.4917 16.145 53.075 16.145C55.3384 16.145 56.47 17.0783 56.47 18.945C56.47 19.5283 56.225 20.8583 55.735 22.935C55.2684 25.0117 55.035 26.4933 55.035 27.38C55.035 28.2433 55.2217 28.9083 55.595 29.375C55.9917 29.8417 56.5284 30.075 57.205 30.075C57.905 30.075 58.4534 29.83 58.85 29.34C59.2467 28.85 59.48 28.36 59.55 27.87L59.655 27.135C59.7484 26.3183 59.795 24.8833 59.795 22.83C59.795 20.7767 59.725 19.4817 59.585 18.945C59.4684 18.385 59.41 18.035 59.41 17.895C59.41 17.3117 59.8767 16.8567 60.81 16.53C61.7434 16.18 62.5834 16.005 63.33 16.005C63.68 16.005 63.855 16.145 63.855 16.425ZM68.8721 23.11L68.9071 23.985C68.9071 24.125 69.0004 24.195 69.1871 24.195C69.9337 24.125 70.5871 23.9383 71.1471 23.635C71.7071 23.3083 72.1271 22.9467 72.4071 22.55C72.9671 21.6867 73.2704 20.94 73.3171 20.31L73.3521 19.89C73.3521 18.63 72.8504 18 71.8471 18C71.1004 18 70.4937 18.3267 70.0271 18.98C69.2571 20.0067 68.8721 21.3833 68.8721 23.11ZM76.5021 27.765C76.5021 28.6517 76.3154 29.4333 75.9421 30.11C75.5921 30.7633 75.1837 31.2533 74.7171 31.58C74.2737 31.8833 73.7487 32.1283 73.1421 32.315C72.3721 32.5483 71.6371 32.665 70.9371 32.665C68.9771 32.665 67.5304 31.93 66.5971 30.46C65.6637 28.99 65.1971 27.1233 65.1971 24.86C65.1971 22.5733 65.7687 20.5433 66.9121 18.77C68.0787 16.9967 69.8171 16.11 72.1271 16.11C74.2271 16.11 75.6504 16.845 76.3971 18.315C76.7004 18.875 76.8521 19.4117 76.8521 19.925C76.8521 20.415 76.8287 20.8117 76.7821 21.115C76.7354 21.395 76.5721 21.8267 76.2921 22.41C76.0121 22.9933 75.6387 23.5183 75.1721 23.985C74.7054 24.4517 73.9704 24.895 72.9671 25.315C71.9637 25.735 70.7854 26.015 69.4321 26.155C69.2454 26.155 69.1521 26.2367 69.1521 26.4C69.1521 26.61 69.2221 26.925 69.3621 27.345C69.5254 27.7417 69.7004 28.08 69.8871 28.36C70.4004 29.0133 71.1587 29.34 72.1621 29.34C73.1654 29.34 74.0171 29.0133 74.7171 28.36C75.0904 28.01 75.3937 27.5783 75.6271 27.065C75.7204 26.8783 75.8371 26.785 75.9771 26.785C76.1404 26.785 76.2687 26.9133 76.3621 27.17C76.4554 27.4267 76.5021 27.625 76.5021 27.765Z" fill="white"/>
<path d="M5.875 37H8.125V47.0625L7.89844 49H5.875V37ZM13.4766 44.6875V44.8516C13.4766 45.4818 13.4089 46.0599 13.2734 46.5859C13.1432 47.112 12.9401 47.5677 12.6641 47.9531C12.388 48.3333 12.0443 48.6302 11.6328 48.8438C11.2266 49.0521 10.7474 49.1562 10.1953 49.1562C9.67969 49.1562 9.23177 49.0521 8.85156 48.8438C8.47656 48.6354 8.16146 48.3411 7.90625 47.9609C7.65104 47.5807 7.44531 47.1354 7.28906 46.625C7.13281 46.1146 7.01562 45.5573 6.9375 44.9531V44.5938C7.01562 43.9896 7.13281 43.4323 7.28906 42.9219C7.44531 42.4115 7.65104 41.9661 7.90625 41.5859C8.16146 41.2057 8.47656 40.9115 8.85156 40.7031C9.22656 40.4948 9.66927 40.3906 10.1797 40.3906C10.737 40.3906 11.2214 40.4974 11.6328 40.7109C12.0495 40.9193 12.3932 41.2161 12.6641 41.6016C12.9401 41.9818 13.1432 42.4349 13.2734 42.9609C13.4089 43.4818 13.4766 44.0573 13.4766 44.6875ZM11.2266 44.8516V44.6875C11.2266 44.3438 11.2005 44.0208 11.1484 43.7188C11.1016 43.4115 11.0182 43.1432 10.8984 42.9141C10.7786 42.6797 10.6146 42.4948 10.4062 42.3594C10.2031 42.224 9.9401 42.1562 9.61719 42.1562C9.3099 42.1562 9.04948 42.2083 8.83594 42.3125C8.6224 42.4167 8.44531 42.5625 8.30469 42.75C8.16927 42.9375 8.06771 43.1615 8 43.4219C7.93229 43.6771 7.89062 43.9583 7.875 44.2656V45.2891C7.89062 45.7005 7.95833 46.0651 8.07812 46.3828C8.20312 46.6953 8.39062 46.9427 8.64062 47.125C8.89583 47.3021 9.22656 47.3906 9.63281 47.3906C9.95052 47.3906 10.2135 47.3281 10.4219 47.2031C10.6302 47.0781 10.7917 46.901 10.9062 46.6719C11.026 46.4427 11.1094 46.1745 11.1562 45.8672C11.2031 45.5547 11.2266 45.2161 11.2266 44.8516ZM17.25 40.5469V49H14.9922V40.5469H17.25ZM14.8516 38.3438C14.8516 38.0156 14.9661 37.7448 15.1953 37.5312C15.4245 37.3177 15.7318 37.2109 16.1172 37.2109C16.4974 37.2109 16.8021 37.3177 17.0312 37.5312C17.2656 37.7448 17.3828 38.0156 17.3828 38.3438C17.3828 38.6719 17.2656 38.9427 17.0312 39.1562C16.8021 39.3698 16.4974 39.4766 16.1172 39.4766C15.7318 39.4766 15.4245 39.3698 15.1953 39.1562C14.9661 38.9427 14.8516 38.6719 14.8516 38.3438ZM21.3594 36.9922V49H19.1094V36.9922H21.3594ZM26.6875 40.5469L23.0156 44.7344L21.0469 46.7266L20.2266 45.1016L21.7891 43.1172L23.9844 40.5469H26.6875ZM24.3516 49L21.8516 45.0938L23.4062 43.7344L26.9453 49H24.3516ZM31.3906 49.1562C30.7344 49.1562 30.1458 49.0521 29.625 48.8438C29.1042 48.6302 28.6615 48.3359 28.2969 47.9609C27.9375 47.5859 27.6615 47.151 27.4688 46.6562C27.276 46.1562 27.1797 45.625 27.1797 45.0625V44.75C27.1797 44.1094 27.2708 43.5234 27.4531 42.9922C27.6354 42.4609 27.8958 42 28.2344 41.6094C28.5781 41.2188 28.9948 40.9193 29.4844 40.7109C29.974 40.4974 30.526 40.3906 31.1406 40.3906C31.7396 40.3906 32.2708 40.4896 32.7344 40.6875C33.1979 40.8854 33.5859 41.1667 33.8984 41.5312C34.2161 41.8958 34.4557 42.3333 34.6172 42.8438C34.7786 43.349 34.8594 43.9115 34.8594 44.5312V45.4688H28.1406V43.9688H32.6484V43.7969C32.6484 43.4844 32.5911 43.2057 32.4766 42.9609C32.3672 42.7109 32.2005 42.513 31.9766 42.3672C31.7526 42.2214 31.4661 42.1484 31.1172 42.1484C30.8203 42.1484 30.5651 42.2135 30.3516 42.3438C30.138 42.474 29.9635 42.6562 29.8281 42.8906C29.6979 43.125 29.599 43.401 29.5312 43.7188C29.4688 44.0312 29.4375 44.375 29.4375 44.75V45.0625C29.4375 45.401 29.4844 45.7135 29.5781 46C29.6771 46.2865 29.8151 46.5339 29.9922 46.7422C30.1745 46.9505 30.3932 47.112 30.6484 47.2266C30.9089 47.3411 31.2031 47.3984 31.5312 47.3984C31.9375 47.3984 32.3151 47.3203 32.6641 47.1641C33.0182 47.0026 33.3229 46.7604 33.5781 46.4375L34.6719 47.625C34.4948 47.8802 34.2526 48.125 33.9453 48.3594C33.6432 48.5938 33.2786 48.7865 32.8516 48.9375C32.4245 49.0833 31.9375 49.1562 31.3906 49.1562ZM40.7109 46.6641C40.7109 46.5026 40.6641 46.3568 40.5703 46.2266C40.4766 46.0964 40.3021 45.9766 40.0469 45.8672C39.7969 45.7526 39.4349 45.6484 38.9609 45.5547C38.5339 45.4609 38.1354 45.3438 37.7656 45.2031C37.401 45.0573 37.0833 44.8828 36.8125 44.6797C36.5469 44.4766 36.3385 44.237 36.1875 43.9609C36.0365 43.6797 35.9609 43.3594 35.9609 43C35.9609 42.6458 36.0365 42.3125 36.1875 42C36.3438 41.6875 36.5651 41.4115 36.8516 41.1719C37.1432 40.9271 37.4974 40.737 37.9141 40.6016C38.3359 40.4609 38.8099 40.3906 39.3359 40.3906C40.0703 40.3906 40.7005 40.5078 41.2266 40.7422C41.7578 40.9766 42.1641 41.2995 42.4453 41.7109C42.7318 42.1172 42.875 42.5807 42.875 43.1016H40.625C40.625 42.8828 40.5781 42.6875 40.4844 42.5156C40.3958 42.3385 40.2552 42.2005 40.0625 42.1016C39.875 41.9974 39.6302 41.9453 39.3281 41.9453C39.0781 41.9453 38.862 41.9896 38.6797 42.0781C38.4974 42.1615 38.3568 42.276 38.2578 42.4219C38.1641 42.5625 38.1172 42.7188 38.1172 42.8906C38.1172 43.0208 38.1432 43.138 38.1953 43.2422C38.2526 43.3411 38.3438 43.4323 38.4688 43.5156C38.5938 43.599 38.7552 43.6771 38.9531 43.75C39.1562 43.8177 39.4062 43.8802 39.7031 43.9375C40.3125 44.0625 40.8568 44.2266 41.3359 44.4297C41.8151 44.6276 42.1953 44.8984 42.4766 45.2422C42.7578 45.5807 42.8984 46.026 42.8984 46.5781C42.8984 46.9531 42.8151 47.2969 42.6484 47.6094C42.4818 47.9219 42.2422 48.1953 41.9297 48.4297C41.6172 48.6589 41.2422 48.8385 40.8047 48.9688C40.3724 49.0938 39.8854 49.1562 39.3438 49.1562C38.5573 49.1562 37.8906 49.0156 37.3438 48.7344C36.8021 48.4531 36.3906 48.0964 36.1094 47.6641C35.8333 47.2266 35.6953 46.7786 35.6953 46.3203H37.8281C37.8385 46.6276 37.9167 46.875 38.0625 47.0625C38.2135 47.25 38.4036 47.3854 38.6328 47.4688C38.8672 47.5521 39.1198 47.5938 39.3906 47.5938C39.6823 47.5938 39.9245 47.5547 40.1172 47.4766C40.3099 47.3932 40.4557 47.2839 40.5547 47.1484C40.6589 47.0078 40.7109 46.8464 40.7109 46.6641Z" fill="#DE1313" fill-opacity="0.9"/>
</svg>
